<svg version="1.1" xmlns="http://www.w3.org/2000/svg" viewBox="0 0 250 250"><desc>Created with Snap</desc><defs></defs><g transform="matrix(0.0661,0,0,0.0661,50.0402,147.6741)"><rect x="-757.0660932430176" y="-1746.6620955842316" width="3782.29230156776" height="2807.2441312413885" style="" fill="#004e89"></rect><g transform="matrix(8.1458,0,0,8.1458,-495.087,-1972.2071)">
<g id="gSl0s2134k10q">
	<g>
		<path d="M387.88501,83.59349V316.4075H12.115V83.59349H387.88501 M391.96945,79.50903H8.03054v240.98294h383.9389V79.50903
			L391.96945,79.50903z" style="" fill="#ffffff"></path>
		<path d="M38.30037,67.71037l353.83911,50.25497l-30.43997,214.32426L7.86052,282.03564L38.30037,67.71037 M36.56565,65.4009
			L5.55142,283.77075l357.88281,50.82834l31.01434-218.36884L36.56565,65.4009L36.56565,65.4009z" style="" fill="#ffffff"></path>
		<path d="M361.69949,67.71037l30.43997,214.32527L38.30037,332.28961L7.86052,117.96535L361.69949,67.71037 M363.43423,65.4009
			L5.55142,116.23025l31.01422,218.36884l357.88293-50.82834L363.43423,65.4009L363.43423,65.4009z" style="" fill="#ffffff"></path>
	</g>
</g>


<desc>Created with Snap</desc><defs></defs></g><g><g transform="matrix(1.024,0,0,-1.024,0,0)"><path d="M191 253L142 253L142 0L52 0L52 626L257 626Q350 626 350 538L350 342Q350 266 283 255L382 0L285 0L191 253ZM230 553L142 553L142 325L230 325Q248 325 254 330Q260 336 260 354L260 524Q260 542 254 547Q248 553 230 553ZM531 488L629 488Q723 488 723 399L723 216L526 216L526 100Q526 83 532 77Q538 71 556 71L602 71Q620 71 626 77Q632 83 632 101L632 141L720 141L720 88Q720 0 627 0L531 0Q438 0 438 88L438 399Q438 488 531 488ZM526 388L526 282L634 282L634 388Q634 405 628 411Q623 417 605 417L556 417Q538 417 532 411Q526 405 526 388ZM1140 488L1175 488Q1265 488 1265 399L1265 0L1175 0L1175 386Q1175 404 1169 409Q1164 415 1146 415L1110 415Q1078 415 1078 380L1078 0L988 0L988 386Q988 404 982 409Q976 415 958 415L923 415Q905 415 897 407Q890 399 890 380L890 0L800 0L800 488L890 488L890 449Q903 488 952 488L987 488Q1051 488 1070 443Q1082 488 1140 488ZM1440 581L1346 581L1346 670L1440 670L1440 581ZM1438 488L1438 0L1348 0L1348 488L1438 488ZM1678 488L1713 488Q1804 488 1804 399L1804 0L1714 0L1714 386Q1714 404 1708 409Q1702 415 1684 415L1649 415Q1631 415 1623 407Q1616 399 1616 380L1616 0L1526 0L1526 488L1616 488L1616 449Q1629 488 1678 488ZM2073 450L2073 669L2163 669L2163 0L2073 0L2073 39Q2060 0 2011 0L1975 0Q1885 0 1885 88L1885 400Q1885 489 1975 489L2011 489Q2060 489 2073 450ZM2005 73L2040 73Q2058 73 2065 81Q2073 89 2073 108L2073 381Q2073 400 2065 408Q2058 416 2040 416L2005 416Q1987 416 1981 410Q1975 404 1975 387L1975 102Q1975 84 1981 78Q1987 73 2005 73Z" style="" fill="#ffffff"></path></g></g></g></svg>